<svg width="24" height="30" viewBox="0 0 24 30" fill="none" xmlns="http://www.w3.org/2000/svg">
<path d="M16 29.8149C17.1 29.8149 18 28.9149 18 27.8149H14C14 28.9149 14.9 29.8149 16 29.8149ZM22 23.8149V18.8149C22 15.7449 20.37 13.1749 17.5 12.4949V11.8149C17.5 10.9849 16.83 10.3149 16 10.3149C15.17 10.3149 14.5 10.9849 14.5 11.8149V12.4949C11.64 13.1749 10 15.7349 10 18.8149V23.8149L8 25.8149V26.8149H24V25.8149L22 23.8149ZM20 24.8149H12V18.8149C12 16.3349 13.51 14.3149 16 14.3149C18.49 14.3149 20 16.3349 20 18.8149V24.8149Z" fill="black" fill-opacity="0.54"/>
</svg>
