<svg width="34" height="24" viewBox="0 0 34 24" fill="none" xmlns="http://www.w3.org/2000/svg">
<path d="M24 1C18.48 1 14 5.48 14 11C14 16.52 18.48 21 24 21C29.52 21 34 16.52 34 11C34 5.48 29.52 1 24 1ZM25 18H23V16H25V18ZM27.07 10.25L26.17 11.17C25.45 11.9 25 12.5 25 14H23V13.5C23 12.4 23.45 11.4 24.17 10.67L25.41 9.41C25.78 9.05 26 8.55 26 8C26 6.9 25.1 6 24 6C22.9 6 22 6.9 22 8H20C20 5.79 21.79 4 24 4C26.21 4 28 5.79 28 8C28 8.88 27.64 9.68 27.07 10.25Z" fill="black" fill-opacity="0.54"/>
</svg>
