<svg width="301" height="66" viewBox="0 0 301 66" fill="none" xmlns="http://www.w3.org/2000/svg">
<path fill-rule="evenodd" clip-rule="evenodd" d="M2.96875 0.224182C1.86419 0.224182 0.96875 1.11961 0.96875 2.22418V63.5139C0.96875 64.6184 1.86418 65.5139 2.96875 65.5139H298.031C299.136 65.5139 300.031 64.6184 300.031 63.5139V2.22418C300.031 1.11961 299.136 0.224182 298.031 0.224182H2.96875Z" fill="white"/>
<path d="M1.46875 63.5139V2.22418C1.46875 1.39576 2.14033 0.724182 2.96875 0.724182H298.031C298.86 0.724182 299.531 1.39576 299.531 2.22418V63.5139C299.531 64.3423 298.86 65.0139 298.031 65.0139H2.96875C2.14032 65.0139 1.46875 64.3423 1.46875 63.5139Z" stroke="black" stroke-opacity="0.12"/>
</svg>
